<svg width="32" height="32" viewBox="0 0 32 32" xmlns="http://www.w3.org/2000/svg">
  <!-- Left glove -->
  <g id="left-glove">
    <!-- Palm -->
    <ellipse cx="10" cy="18" rx="4" ry="6" fill="#8B4513" stroke="#654321" stroke-width="1"/>
    
    <!-- Fingers -->
    <ellipse cx="8" cy="12" rx="1.5" ry="3" fill="#8B4513" stroke="#654321" stroke-width="0.5"/>
    <ellipse cx="10" cy="11" rx="1.5" ry="3.5" fill="#8B4513" stroke="#654321" stroke-width="0.5"/>
    <ellipse cx="12" cy="11.5" rx="1.5" ry="3" fill="#8B4513" stroke="#654321" stroke-width="0.5"/>
    <ellipse cx="14" cy="12.5" rx="1.2" ry="2.5" fill="#8B4513" stroke="#654321" stroke-width="0.5"/>
    
    <!-- Thumb -->
    <ellipse cx="6" cy="16" rx="1.5" ry="2.5" fill="#8B4513" stroke="#654321" stroke-width="0.5"/>
    
    <!-- Wrist cuff -->
    <rect x="6" y="22" width="8" height="3" fill="#654321" stroke="#4A2C17" stroke-width="1"/>
    
    <!-- Decorative stitching -->
    <path d="M 6 23 L 14 23" stroke="#4A2C17" stroke-width="0.5" stroke-dasharray="1,1"/>
  </g>
  
  <!-- Right glove -->
  <g id="right-glove">
    <!-- Palm -->
    <ellipse cx="22" cy="18" rx="4" ry="6" fill="#8B4513" stroke="#654321" stroke-width="1"/>
    
    <!-- Fingers -->
    <ellipse cx="20" cy="12" rx="1.5" ry="3" fill="#8B4513" stroke="#654321" stroke-width="0.5"/>
    <ellipse cx="22" cy="11" rx="1.5" ry="3.5" fill="#8B4513" stroke="#654321" stroke-width="0.5"/>
    <ellipse cx="24" cy="11.5" rx="1.5" ry="3" fill="#8B4513" stroke="#654321" stroke-width="0.5"/>
    <ellipse cx="26" cy="12.5" rx="1.2" ry="2.5" fill="#8B4513" stroke="#654321" stroke-width="0.5"/>
    
    <!-- Thumb -->
    <ellipse cx="26" cy="16" rx="1.5" ry="2.5" fill="#8B4513" stroke="#654321" stroke-width="0.5"/>
    
    <!-- Wrist cuff -->
    <rect x="18" y="22" width="8" height="3" fill="#654321" stroke="#4A2C17" stroke-width="1"/>
    
    <!-- Decorative stitching -->
    <path d="M 18 23 L 26 23" stroke="#4A2C17" stroke-width="0.5" stroke-dasharray="1,1"/>
  </g>
  
  <!-- Metal studs for protection -->
  <circle cx="10" cy="16" r="1" fill="#C0C0C0" stroke="#808080" stroke-width="0.5"/>
  <circle cx="22" cy="16" r="1" fill="#C0C0C0" stroke="#808080" stroke-width="0.5"/>
</svg>